<svg width="160" height="44" viewBox="0 0 160 44" fill="none" xmlns="http://www.w3.org/2000/svg">
<path d="M12.2565 29.9896C13.9309 29.0404 15.0614 27.238 15.0614 25.1796C15.0614 22.1294 12.5871 19.6551 9.53687 19.6551C6.48666 19.6551 4.01236 22.1294 4.01236 25.1796C4.01236 27.238 5.14286 29.0404 6.81728 29.9896C3.11649 31.0987 0.311577 34.4049 0.00228928 38.4256C-0.0190409 38.8096 0.10894 39.1935 0.375567 39.4815C0.642194 39.7694 1.01547 39.9294 1.39942 39.9294H17.653C18.0369 39.9294 18.4209 39.7694 18.6768 39.4815C18.9435 39.1935 19.0715 38.8203 19.0501 38.4256C18.7622 34.4156 15.9573 31.0987 12.2565 29.9896ZM5.59079 25.1903C5.59079 23.0146 7.3612 21.2442 9.53687 21.2442C11.7126 21.2442 13.483 23.0146 13.483 25.1903C13.483 27.3659 11.7126 29.1364 9.53687 29.1364C7.3612 29.1364 5.59079 27.3659 5.59079 25.1903ZM1.60205 38.3617C2.00732 34.3089 5.45215 31.1734 9.53687 31.1734C13.6216 31.1734 17.0771 34.3196 17.4717 38.3617H1.60205ZM10.4541 17.4367C10.6887 17.7354 11.03 17.9167 11.4139 17.9167C11.7979 17.9167 12.1498 17.746 12.3738 17.4367L15.584 13.2774C15.8719 12.9041 15.9253 12.4135 15.712 11.9975C15.5093 11.5709 15.0827 11.315 14.6135 11.315H14.6241C16.2026 4.92658 22.8362 3.65744 26.7716 3.47613C27.1343 3.46547 27.4329 3.19884 27.5075 2.83623C27.5822 2.47361 27.3902 2.12166 27.0596 1.98302C23.2735 0.265938 18.7515 0.511235 14.9761 2.64425C11.5526 4.57464 9.24892 7.71017 8.59835 11.3256H8.20374C7.73448 11.3256 7.31854 11.5923 7.10524 12.0082C6.9026 12.4241 6.94526 12.9147 7.23322 13.288L10.4541 17.4367ZM9.27025 12.8934C9.66486 12.8934 10.0061 12.5948 10.0488 12.2002C10.4541 8.79801 12.5338 5.81179 15.7333 4.00939C17.8663 2.80423 20.2659 2.28164 22.5909 2.45228C21.1618 2.7829 19.6794 3.29482 18.3036 4.06271C15.2747 5.79046 13.4403 8.45673 12.875 11.9762C12.8324 12.2002 12.8964 12.4348 13.0564 12.6055C13.2057 12.7868 13.4296 12.8827 13.6536 12.8827H13.8989L11.4246 16.1143L8.92896 12.8934H9.27025ZM37.8313 26.5554C37.5967 26.2568 37.2554 26.0755 36.8715 26.0755C36.4875 26.0755 36.1356 26.2461 35.9116 26.5554L32.7014 30.7148C32.4135 31.0881 32.3602 31.5787 32.5735 31.9946C32.7761 32.4212 33.2027 32.6772 33.672 32.6772H33.6826C32.0935 39.0762 25.4598 40.3454 21.5351 40.516C21.1725 40.5267 20.8739 40.7933 20.7992 41.1559C20.7352 41.5079 20.9165 41.8705 21.2471 42.0198C22.9109 42.777 24.724 43.1503 26.5583 43.1503C28.8833 43.1503 31.219 42.553 33.3307 41.3585C36.7542 39.4282 39.0578 36.2926 39.7084 32.6772H40.0923C40.5616 32.6772 40.9775 32.4105 41.1908 31.9946C41.3935 31.5787 41.3508 31.0881 41.0629 30.7148L37.8313 26.5554ZM39.0152 31.0987C38.6206 31.0987 38.2793 31.3973 38.2366 31.792C37.8313 35.1941 35.7517 38.1803 32.5521 39.9827C30.4191 41.1879 28.0088 41.7105 25.6945 41.5399C27.1236 41.2092 28.606 40.6973 29.9818 39.9294C33.0214 38.2017 34.8451 35.5354 35.4104 32.0159C35.453 31.792 35.389 31.5573 35.2291 31.3867C35.0798 31.2054 34.8558 31.1094 34.6318 31.1094H34.3865L36.8821 27.8885L39.3778 31.1094L39.0152 31.0987Z" fill="white"/>
<path d="M44.401 8.71245L39.687 4.00914C39.5697 3.89183 39.4204 3.8385 39.2711 3.8385H31.027C30.0565 3.8385 29.2566 4.62772 29.2566 5.60891V22.1718C29.2566 23.1423 30.0458 23.9422 31.027 23.9422H42.8012C43.7718 23.9422 44.5716 23.153 44.5716 22.1718V9.12839C44.5716 8.95775 44.5077 8.8191 44.401 8.71245ZM39.8577 5.83287L42.5666 8.54181H40.4549C40.135 8.54181 39.8683 8.27518 39.8683 7.95523L39.8577 5.83287ZM42.8119 22.7477H31.027C30.707 22.7477 30.4404 22.4811 30.4404 22.1611V5.59824C30.4404 5.27829 30.707 5.01166 31.027 5.01166H38.6845V7.95523C38.6845 8.92575 39.4737 9.72563 40.4549 9.72563H43.3985V22.1611C43.3985 22.4811 43.1319 22.7477 42.8119 22.7477Z" fill="white"/>
<path d="M40.4444 13.3307H34.5573C34.2373 13.3307 33.9707 13.5973 33.9707 13.9173C33.9707 14.2372 34.2373 14.5038 34.5573 14.5038H40.4444C40.7644 14.5038 41.031 14.2372 41.031 13.9173C41.031 13.5867 40.775 13.3307 40.4444 13.3307Z" fill="white"/>
<path d="M40.4444 15.677H34.5573C34.2373 15.677 33.9707 15.9436 33.9707 16.2636C33.9707 16.5835 34.2373 16.8502 34.5573 16.8502H40.4444C40.7644 16.8502 41.031 16.5835 41.031 16.2636C41.0417 15.9436 40.775 15.677 40.4444 15.677Z" fill="white"/>
<path d="M40.4444 18.0446H34.5573C34.2373 18.0446 33.9707 18.3112 33.9707 18.6311C33.9707 18.9511 34.2373 19.2177 34.5573 19.2177H40.4444C40.7644 19.2177 41.031 18.9511 41.031 18.6311C41.031 18.3112 40.775 18.0446 40.4444 18.0446Z" fill="white"/>
<path d="M32.2108 14.5038C32.5348 14.5038 32.7974 14.2412 32.7974 13.9173C32.7974 13.5933 32.5348 13.3307 32.2108 13.3307C31.8869 13.3307 31.6243 13.5933 31.6243 13.9173C31.6243 14.2412 31.8869 14.5038 32.2108 14.5038Z" fill="white"/>
<path d="M32.2108 16.8607C32.5348 16.8607 32.7974 16.598 32.7974 16.2741C32.7974 15.9501 32.5348 15.6875 32.2108 15.6875C31.8869 15.6875 31.6243 15.9501 31.6243 16.2741C31.6243 16.598 31.8869 16.8607 32.2108 16.8607Z" fill="white"/>
<path d="M32.2108 19.2177C32.5348 19.2177 32.7974 18.9551 32.7974 18.6311C32.7974 18.3072 32.5348 18.0446 32.2108 18.0446C31.8869 18.0446 31.6243 18.3072 31.6243 18.6311C31.6243 18.9551 31.8869 19.2177 32.2108 19.2177Z" fill="white"/>
<path d="M64.9315 14.5358L64.9742 1.44971H62.3932L62.3506 14.5358C62.3506 16.3702 63.9077 17.8313 65.7208 17.6926L65.7634 17.714H74.0928V15.1117H65.5501C65.2302 15.1117 64.9315 14.8557 64.9315 14.5358Z" fill="white"/>
<path d="M78.0811 1.43896H75.4895V17.7139H78.0811V1.43896Z" fill="white"/>
<path d="M79.4788 4.04125H85.9098V17.7139H88.4801V4.04125H94.9218V1.43896H79.4788V4.04125Z" fill="white"/>
<path d="M103.987 8.28599H100.297C99.1981 8.28599 98.3235 7.37945 98.3449 6.27028L98.3235 6.05698C98.3449 4.94781 99.2301 4.04128 100.318 4.04128H107.144L107.176 1.46033H100.233C97.769 1.46033 95.7319 3.4547 95.7533 5.91834L95.7319 6.40893C95.7533 8.87257 97.7263 10.8883 100.19 10.8883H103.859C104.968 10.8883 105.874 11.7948 105.874 12.8826V13.1173C105.874 14.2158 104.989 15.1116 103.88 15.1116H97.0864V17.7139H104.029C106.493 17.7139 108.487 15.6982 108.466 13.2346L108.487 12.776C108.498 10.3017 106.45 8.28599 103.987 8.28599Z" fill="white"/>
<path d="M127.706 6.40893L127.728 5.91834C127.706 3.4547 125.733 1.46033 123.27 1.46033H114.748L114.727 17.7033H117.308L117.286 10.8776H119.835C123.248 10.8776 124.379 10.9949 126.192 17.7033H128.773C127.728 13.8425 126.64 11.5708 125.52 10.227C126.821 9.44848 127.706 8.03003 127.706 6.40893ZM123.088 8.28599H117.286L117.308 4.04128H123.11C124.219 4.04128 125.157 4.94781 125.125 6.05698L125.147 6.27028C125.125 7.39012 124.197 8.28599 123.088 8.28599Z" fill="white"/>
<path d="M133.369 4.01993H142.84L142.818 1.43898H133.561C131.748 1.32166 130.191 2.78278 130.191 4.61717L130.17 17.7032H132.751V10.8563H140.984L140.963 8.2753H132.729L132.772 4.60651C132.74 4.29722 133.049 4.01993 133.369 4.01993Z" fill="white"/>
<path d="M157.579 15.0158C158.389 13.9066 158.901 12.5095 158.88 11.0057L158.901 8.12616C158.901 4.37205 155.819 1.27917 152.033 1.27917H149.9C146.146 1.27917 143.053 4.36139 143.053 8.12616L143.032 11.0057C143.032 14.7918 146.114 17.8741 149.879 17.8741H152.012C153.356 17.8741 154.603 17.4795 155.659 16.8076L156.512 17.7141H159.989L157.579 15.0158ZM156.299 10.5578C156.299 11.411 156.064 12.2002 155.691 12.9041L152.694 9.56595H149.239L153.814 14.7172C152.577 15.3678 151.649 15.2718 150.337 15.2718C147.746 15.2718 145.602 13.1601 145.602 10.5578L145.623 8.58476C145.623 5.99315 147.756 3.84946 150.359 3.84946H151.596C154.187 3.84946 156.331 5.98248 156.331 8.58476L156.299 10.5578Z" fill="white"/>
<path d="M68.0351 31.248C66.7979 27.3766 65.7314 23.7825 63.8864 23.7825H62.3506V33.4344H63.897L63.9077 25.3182C64.7289 25.3182 66.1474 30.2988 67.0965 33.4344H69.0056C69.9441 30.2988 71.3839 25.3182 72.2265 25.3182L72.2158 33.4344H73.7622V23.7825H72.2158C70.3601 23.7825 69.2829 27.3766 68.0351 31.248Z" fill="white"/>
<path d="M79.4786 23.7076C78.1881 23.7076 77.6762 25.4034 77.0896 26.8325L74.594 33.4342H76.2471L78.7427 26.8325C79.084 25.862 79.276 25.3927 79.4893 25.3927C79.6812 25.3927 79.8945 25.862 80.2038 26.8325L82.7208 33.4342H84.3739L81.8569 26.8325C81.2703 25.4034 80.7691 23.7076 79.4786 23.7076Z" fill="white"/>
<path d="M91.8073 31.8879C91.1994 31.8879 90.4422 29.5096 90.3782 29.4669L89.557 27.2166C88.8424 25.1156 88.2559 23.7931 86.7094 23.7931H85.1843V33.445H86.7094L86.7201 25.3289C87.1254 25.3289 87.5946 26.3527 88.1279 27.7712L88.9384 30.0108C89.6743 32.1332 90.2716 33.4557 91.8073 33.4557H93.3325V23.8038H91.8073V31.8879Z" fill="white"/>
<path d="M99.0599 23.7076C97.7694 23.7076 97.2575 25.4034 96.6709 26.8325L94.1753 33.4342H95.8284L98.324 26.8325C98.6653 25.862 98.8573 25.3927 99.0706 25.3927C99.2625 25.3927 99.4758 25.862 99.7851 26.8325L102.302 33.4342H103.945L101.428 26.8325C100.852 25.4034 100.35 23.7076 99.0599 23.7076Z" fill="white"/>
<path d="M111.357 28.3363H107.816L107.805 29.8614H111.346C111.442 29.8614 111.527 29.904 111.581 29.9574C111.239 31.1412 110.152 31.9837 108.893 31.9837C108.296 31.9837 107.997 32.0264 107.347 31.7811C106.344 31.3758 105.63 30.352 105.608 29.2641V28.027C105.608 26.8645 106.344 25.8086 107.411 25.414C108.019 25.1794 108.509 25.2221 109.149 25.2221C110.184 25.2221 111.111 25.798 111.602 26.6512L113.095 26.0433C112.466 24.6568 111.047 23.6863 109.416 23.6863H108.146C107.208 23.6863 106.365 24.0062 105.672 24.5395C104.702 25.1901 104.072 26.2246 104.072 27.7497L104.062 29.4561C104.062 31.6958 105.896 33.5302 108.136 33.5302H109.064C110.056 33.5302 110.909 33.2529 111.677 32.6343L111.698 33.4342H113.244L113.234 30.224C113.223 29.1788 112.402 28.3363 111.357 28.3363Z" fill="white"/>
<path d="M115.964 25.318H121.03L121.019 23.7929H116.081C115.004 23.7289 114.087 24.5928 114.087 25.6806L114.044 31.5571C114.044 32.6449 114.876 33.4448 116.081 33.4448H121.019V31.8984H115.953C115.761 31.8984 115.58 31.749 115.58 31.5571L115.601 29.3814H120.486L120.475 27.8563H115.591L115.612 25.6806C115.612 25.478 115.772 25.318 115.964 25.318Z" fill="white"/>
<path d="M127.525 31.248C126.288 27.3766 125.221 23.7825 123.376 23.7825H121.83V33.4344H123.376L123.387 25.3182C124.208 25.3182 125.626 30.2988 126.576 33.4344H128.485C129.423 30.2988 130.863 25.3182 131.705 25.3182L131.695 33.4344H133.241V23.7825H131.695C129.86 23.7825 128.783 27.3766 127.525 31.248Z" fill="white"/>
<path d="M135.982 25.318H141.048L141.038 23.7929H136.1C135.023 23.7289 134.105 24.5928 134.105 25.6806L134.063 31.5571C134.063 32.6449 134.895 33.4448 136.1 33.4448H141.038V31.8984H135.972C135.78 31.8984 135.599 31.749 135.599 31.5571L135.62 29.3814H140.504L140.494 27.8563H135.609L135.631 25.6806C135.62 25.478 135.79 25.318 135.982 25.318Z" fill="white"/>
<path d="M148.493 31.8879C147.885 31.8879 147.127 29.5096 147.063 29.4669L146.242 27.2166C145.528 25.1156 144.941 23.7931 143.395 23.7931H141.859V33.445H143.384L143.395 25.3289C143.8 25.3289 144.269 26.3527 144.802 27.7712L145.613 30.0108C146.349 32.1332 146.946 33.4557 148.482 33.4557H150.007V23.8038H148.482L148.493 31.8879Z" fill="white"/>
<path d="M150.838 23.7825V25.3289H154.646V33.4344H156.182V25.3289H159.989V23.7825H150.838Z" fill="white"/>
<path d="M64.2383 41.9664C63.8224 40.6759 63.4704 39.4814 62.8625 39.4814H62.3506V42.6916H62.8625L62.8732 39.9934C63.1505 39.9934 63.6197 41.6571 63.929 42.6916H64.5689C64.8782 41.6465 65.3581 39.9934 65.6461 39.9934L65.6354 42.6916H66.1474V39.4814H65.6354C65.0169 39.4814 64.6542 40.6759 64.2383 41.9664Z" fill="white"/>
<path d="M68.0563 39.4602C67.6297 39.4602 67.4591 40.0255 67.2564 40.5054L66.4246 42.7024H66.9685L67.8004 40.5054C67.9177 40.1854 67.9817 40.0255 68.0457 40.0255C68.1096 40.0255 68.1736 40.1854 68.2803 40.5054L69.1122 42.7024H69.6561L68.8242 40.5054C68.6536 40.0148 68.4829 39.4602 68.0563 39.4602Z" fill="white"/>
<path d="M72.1623 42.1797C71.9596 42.1797 71.7037 41.3905 71.693 41.3798L71.4157 40.6332C71.1811 39.9293 70.9784 39.4921 70.4665 39.4921H69.9546V42.7023H70.4665L70.4772 40.004C70.6052 40.004 70.7651 40.3453 70.9464 40.8145L71.2131 41.5611C71.4584 42.265 71.6503 42.7129 72.1729 42.7129H72.6849V39.5027H72.1729V42.1797H72.1623Z" fill="white"/>
<path d="M74.5727 39.4602C74.1461 39.4602 73.9754 40.0255 73.7728 40.5054L72.9409 42.7024H73.4848L74.3167 40.5054C74.434 40.1854 74.498 40.0255 74.562 40.0255C74.626 40.0255 74.69 40.1854 74.7966 40.5054L75.6285 42.7024H76.1724L75.3406 40.5054C75.1699 40.0148 74.9993 39.4602 74.5727 39.4602Z" fill="white"/>
<path d="M78.6681 40.9959H77.4842L77.4736 41.5079H78.6574C78.6894 41.5079 78.7214 41.5185 78.732 41.5399C78.6147 41.9345 78.2628 42.2118 77.8362 42.2118C77.6335 42.2118 77.5376 42.2224 77.3243 42.1478C76.983 42.0198 76.7483 41.6785 76.7483 41.3159V40.9C76.7483 40.516 76.9936 40.1641 77.3456 40.0254C77.5482 39.9508 77.7189 39.9614 77.9215 39.9614C78.2628 39.9614 78.5721 40.1534 78.7427 40.4307L79.2333 40.2281C79.02 39.7695 78.5507 39.4388 78.0068 39.4388H77.5802C77.2709 39.4388 76.983 39.5455 76.759 39.7268C76.4391 39.9401 76.2258 40.292 76.2258 40.7933L76.2151 41.3586C76.2151 42.1051 76.823 42.713 77.5696 42.713H77.8788C78.2095 42.713 78.4867 42.617 78.7534 42.4144L78.764 42.681H79.276L79.2653 41.6145C79.2866 41.2732 79.0093 40.9959 78.6681 40.9959Z" fill="white"/>
<path d="M80.2039 39.9933H81.889L81.8783 39.4813H80.2359C79.8839 39.46 79.5746 39.748 79.5746 40.1106L79.564 42.073C79.564 42.4356 79.8413 42.7022 80.2465 42.7022H81.889V42.1903H80.2039C80.1399 42.1903 80.0759 42.1369 80.0759 42.073L80.0865 41.3477H81.7183L81.7076 40.8358H80.0759L80.0865 40.1106C80.0759 40.0466 80.1292 39.9933 80.2039 39.9933Z" fill="white"/>
<path d="M84.0432 41.9664C83.6273 40.6759 83.2753 39.4814 82.6674 39.4814H82.1555V42.6916H82.6674L82.6781 39.9934C82.9554 39.9934 83.4247 41.6571 83.7339 42.6916H84.3739C84.6831 41.6465 85.1631 39.9934 85.451 39.9934L85.4404 42.6916H85.9523V39.4814H85.4404C84.8218 39.4814 84.4592 40.6759 84.0432 41.9664Z" fill="white"/>
<path d="M86.8584 39.9933H88.5435L88.5328 39.4813H86.8904C86.5385 39.46 86.2292 39.748 86.2292 40.1106L86.2185 42.073C86.2185 42.4356 86.4958 42.7022 86.9011 42.7022H88.5435V42.1903H86.8584C86.7944 42.1903 86.7304 42.1369 86.7304 42.073L86.7411 41.3477H88.3729L88.3622 40.8358H86.7411L86.7518 40.1106C86.7411 40.0466 86.7944 39.9933 86.8584 39.9933Z" fill="white"/>
<path d="M91.018 42.1797C90.8153 42.1797 90.5594 41.3905 90.5487 41.3798L90.2714 40.6332C90.0368 39.9293 89.8342 39.4921 89.3222 39.4921H88.8103V42.7023H89.3222L89.3329 40.004C89.4609 40.004 89.6209 40.3453 89.8022 40.8145L90.0688 41.5611C90.3141 42.265 90.5061 42.7129 91.0286 42.7129H91.5406V39.5027H91.0286V42.1797H91.018Z" fill="white"/>
<path d="M91.8074 39.9934H93.0765V42.6916H93.5884V39.9934H94.8469V39.4814H91.8074V39.9934Z" fill="white"/>
<path d="M97.865 39.4493H97.4384C96.6918 39.4493 96.0839 40.0573 96.0839 40.8038L96.0732 41.3691C96.0732 42.1156 96.6812 42.7235 97.4277 42.7235H97.8543C98.6009 42.7235 99.2088 42.1156 99.2088 41.3691L99.2194 40.8038C99.2088 40.0679 98.6115 39.4493 97.865 39.4493ZM98.6969 41.2837C98.6969 41.7957 98.2702 42.2116 97.7583 42.2116H97.513C97.0011 42.2116 96.5852 41.7957 96.5852 41.2837L96.5958 40.8998C96.5958 40.3879 97.0118 39.9613 97.5237 39.9613H97.769C98.2809 39.9613 98.7075 40.3879 98.7075 40.8998L98.6969 41.2837Z" fill="white"/>
<path d="M100.126 39.9933H102.004L101.993 39.4813H100.158C99.8065 39.46 99.4972 39.748 99.4972 40.1106L99.4866 42.6915H99.9985V41.3371H101.63L101.62 40.8251H99.9878L99.9985 40.0999C99.9985 40.0466 100.062 39.9933 100.126 39.9933Z" fill="white"/>
<path d="M105.779 40.4626L105.789 40.3666C105.779 39.876 105.395 39.4921 104.915 39.4921H103.23L103.219 42.6916H103.731L103.72 41.3478H104.222C104.893 41.3478 105.117 41.3691 105.469 42.6916H105.981C105.779 41.9344 105.555 41.4864 105.341 41.2198C105.608 41.0705 105.779 40.7825 105.779 40.4626ZM104.872 40.8359H103.72L103.731 40.004H104.883C105.096 40.004 105.288 40.1853 105.277 40.3986L105.288 40.4413C105.267 40.6546 105.085 40.8359 104.872 40.8359Z" fill="white"/>
<path d="M106.898 39.9933H108.584L108.573 39.4813H106.93C106.578 39.46 106.269 39.748 106.269 40.1106L106.259 42.073C106.259 42.4356 106.536 42.7022 106.941 42.7022H108.584V42.1903H106.898C106.834 42.1903 106.77 42.1369 106.77 42.073L106.781 41.3477H108.413L108.402 40.8358H106.77L106.781 40.1106C106.781 40.0466 106.834 39.9933 106.898 39.9933Z" fill="white"/>
<path d="M111.858 41.3691L111.868 40.8038C111.868 40.0573 111.26 39.4493 110.514 39.4493H110.087C109.341 39.4493 108.733 40.0573 108.733 40.8038L108.722 41.3691C108.722 42.1156 109.33 42.7235 110.077 42.7235H110.503C110.77 42.7235 111.015 42.6489 111.218 42.5102L111.388 42.6915H112.071L111.602 42.1583C111.772 41.945 111.868 41.6677 111.858 41.3691ZM111.356 41.2837C111.356 41.4544 111.314 41.6037 111.239 41.7423L110.642 41.0811H109.959L110.866 42.0943C110.621 42.2223 110.439 42.2116 110.183 42.2116C109.671 42.2116 109.245 41.7957 109.245 41.2837L109.255 40.8998C109.255 40.3879 109.682 39.9613 110.194 39.9613H110.439C110.951 39.9613 111.378 40.3879 111.378 40.8998L111.356 41.2837Z" fill="white"/>
<path d="M114.673 41.2838C114.673 41.7958 114.247 42.2224 113.735 42.2224H113.671C113.159 42.2224 112.743 41.7958 112.743 41.2838L112.753 39.4814H112.231L112.22 41.3692C112.22 42.1157 112.828 42.7236 113.575 42.7236H113.809C114.556 42.7236 115.164 42.1157 115.164 41.3692L115.174 39.4814H114.663L114.673 41.2838Z" fill="white"/>
<path d="M116.092 39.9933H117.777L117.766 39.4813H116.124C115.772 39.46 115.463 39.748 115.463 40.1106L115.452 42.073C115.452 42.4356 115.729 42.7022 116.134 42.7022H117.777V42.1903H116.092C116.028 42.1903 115.964 42.1369 115.964 42.073L115.974 41.3477H117.606L117.596 40.8358H115.964L115.974 40.1106C115.974 40.0466 116.038 39.9933 116.092 39.9933Z" fill="white"/>
<path d="M119.568 40.8359H118.833C118.619 40.8359 118.449 40.6546 118.449 40.4413L118.438 40.3986C118.449 40.1853 118.619 40.004 118.833 40.004H120.176L120.187 39.4921H118.822C118.331 39.4921 117.937 39.8867 117.937 40.3666L117.926 40.4626C117.937 40.9532 118.321 41.3478 118.801 41.3478H119.526C119.739 41.3478 119.92 41.5291 119.92 41.7424V41.7851C119.92 41.9984 119.75 42.1797 119.526 42.1797H118.182V42.6916H119.558C120.048 42.6916 120.432 42.297 120.432 41.8064L120.443 41.7104C120.454 41.2305 120.059 40.8359 119.568 40.8359Z" fill="white"/>
<path d="M120.614 39.9934H121.883V42.6916H122.395V39.9934H123.664V39.4814H120.614V39.9934Z" fill="white"/>
<path d="M125.53 39.9933H127.407L127.397 39.4813H125.573C125.221 39.46 124.912 39.748 124.912 40.1106L124.901 42.6915H125.413V41.3371H127.045L127.034 40.8251H125.402L125.413 40.0999C125.402 40.0466 125.466 39.9933 125.53 39.9933Z" fill="white"/>
<path d="M129.22 39.4493H128.794C128.047 39.4493 127.439 40.0573 127.439 40.8038L127.429 41.3691C127.429 42.1156 128.037 42.7235 128.783 42.7235H129.21C129.956 42.7235 130.564 42.1156 130.564 41.3691L130.575 40.8038C130.564 40.0679 129.956 39.4493 129.22 39.4493ZM130.052 41.2837C130.052 41.7957 129.626 42.2116 129.114 42.2116H128.868C128.357 42.2116 127.941 41.7957 127.941 41.2837L127.951 40.8998C127.951 40.3879 128.367 39.9613 128.879 39.9613H129.124C129.636 39.9613 130.063 40.3879 130.063 40.8998L130.052 41.2837Z" fill="white"/>
<path d="M133.401 40.4626L133.412 40.3666C133.401 39.876 133.017 39.4921 132.537 39.4921H130.852L130.842 42.6916H131.353L131.343 41.3478H131.844C132.516 41.3478 132.74 41.3691 133.092 42.6916H133.604C133.401 41.9344 133.177 41.4864 132.964 41.2198C133.231 41.0705 133.401 40.7825 133.401 40.4626ZM132.495 40.8359H131.343L131.353 40.004H132.505C132.719 40.004 132.911 40.1853 132.9 40.3986L132.911 40.4413C132.889 40.6546 132.708 40.8359 132.495 40.8359Z" fill="white"/>
<path d="M137.966 41.3691L137.977 40.8038C137.977 40.0573 137.369 39.4493 136.622 39.4493H136.195C135.449 39.4493 134.841 40.0573 134.841 40.8038L134.83 41.3691C134.83 42.1156 135.438 42.7235 136.185 42.7235H136.611C136.878 42.7235 137.123 42.6489 137.326 42.5102L137.497 42.6915H138.179L137.71 42.1583C137.881 41.945 137.977 41.6677 137.966 41.3691ZM137.465 41.2837C137.465 41.4544 137.422 41.6037 137.347 41.7423L136.75 41.0811H136.067L136.974 42.0943C136.729 42.2223 136.547 42.2116 136.291 42.2116C135.78 42.2116 135.353 41.7957 135.353 41.2837L135.364 40.8998C135.364 40.3879 135.79 39.9613 136.302 39.9613H136.547C137.059 39.9613 137.486 40.3879 137.486 40.8998L137.465 41.2837Z" fill="white"/>
<path d="M140.781 41.2838C140.781 41.7958 140.355 42.2224 139.843 42.2224H139.779C139.267 42.2224 138.851 41.7958 138.851 41.2838L138.861 39.4814H138.35L138.339 41.3692C138.339 42.1157 138.947 42.7236 139.693 42.7236H139.928C140.675 42.7236 141.282 42.1157 141.282 41.3692L141.293 39.4814H140.781V41.2838Z" fill="white"/>
<path d="M143.352 39.4493H142.925C142.179 39.4493 141.571 40.0573 141.571 40.8038L141.56 41.3691C141.56 42.1156 142.168 42.7235 142.915 42.7235H143.341C144.088 42.7235 144.696 42.1156 144.696 41.3691L144.707 40.8038C144.696 40.0679 144.088 39.4493 143.352 39.4493ZM144.184 41.2837C144.184 41.7957 143.757 42.2116 143.245 42.2116H143C142.488 42.2116 142.072 41.7957 142.072 41.2837L142.083 40.8998C142.083 40.3879 142.499 39.9613 143.011 39.9613H143.256C143.768 39.9613 144.195 40.3879 144.195 40.8998L144.184 41.2837Z" fill="white"/>
<path d="M147.789 39.4814H144.749V39.9934H146.018V42.6916H146.519V39.9934H147.789V39.4814Z" fill="white"/>
<path d="M148.78 39.4602C148.354 39.4602 148.183 40.0255 147.98 40.5054L147.148 42.7024H147.692L148.524 40.5054C148.642 40.1854 148.706 40.0255 148.77 40.0255C148.834 40.0255 148.898 40.1854 149.004 40.5054L149.836 42.7024H150.38L149.548 40.5054C149.377 40.0148 149.207 39.4602 148.78 39.4602Z" fill="white"/>
<path d="M149.761 39.9934H151.03V42.6916H151.542V39.9934H152.811V39.4814H149.761V39.9934Z" fill="white"/>
<path d="M153.59 39.4814H153.078V42.6916H153.59V39.4814Z" fill="white"/>
<path d="M155.649 39.4493H155.222C154.476 39.4493 153.868 40.0573 153.868 40.8038L153.857 41.3691C153.857 42.1156 154.465 42.7235 155.211 42.7235H155.638C156.385 42.7235 156.992 42.1156 156.992 41.3691L157.003 40.8038C157.003 40.0679 156.395 39.4493 155.649 39.4493ZM156.491 41.2837C156.491 41.7957 156.065 42.2116 155.553 42.2116H155.307C154.795 42.2116 154.38 41.7957 154.38 41.2837L154.39 40.8998C154.39 40.3879 154.806 39.9613 155.318 39.9613H155.563C156.075 39.9613 156.502 40.3879 156.502 40.8998L156.491 41.2837Z" fill="white"/>
<path d="M159.477 39.4814V42.1797C159.275 42.1797 159.019 41.3905 159.008 41.3798L158.731 40.6333C158.496 39.9294 158.293 39.4921 157.781 39.4921H157.27V42.7023H157.781L157.792 40.004C157.92 40.004 158.08 40.3453 158.261 40.8146L158.528 41.5611C158.773 42.265 158.965 42.713 159.488 42.713H160V39.5028L159.477 39.4814Z" fill="white"/>
</svg>
