<svg width="45" height="44" viewBox="0 0 45 44" fill="none" xmlns="http://www.w3.org/2000/svg">
<path d="M12.2565 29.9896C13.9309 29.0404 15.0614 27.238 15.0614 25.1796C15.0614 22.1294 12.5871 19.6551 9.53687 19.6551C6.48666 19.6551 4.01236 22.1294 4.01236 25.1796C4.01236 27.238 5.14286 29.0404 6.81728 29.9896C3.11649 31.0987 0.311577 34.4049 0.00228928 38.4256C-0.0190409 38.8096 0.10894 39.1935 0.375567 39.4815C0.642194 39.7694 1.01547 39.9294 1.39942 39.9294H17.653C18.0369 39.9294 18.4209 39.7694 18.6768 39.4815C18.9435 39.1935 19.0715 38.8203 19.0501 38.4256C18.7622 34.4156 15.9573 31.0987 12.2565 29.9896ZM5.59079 25.1903C5.59079 23.0146 7.3612 21.2442 9.53687 21.2442C11.7126 21.2442 13.483 23.0146 13.483 25.1903C13.483 27.3659 11.7126 29.1364 9.53687 29.1364C7.3612 29.1364 5.59079 27.3659 5.59079 25.1903ZM1.60205 38.3617C2.00732 34.3089 5.45215 31.1734 9.53687 31.1734C13.6216 31.1734 17.0771 34.3196 17.4717 38.3617H1.60205ZM10.4541 17.4367C10.6887 17.7354 11.03 17.9167 11.4139 17.9167C11.7979 17.9167 12.1498 17.746 12.3738 17.4367L15.584 13.2774C15.8719 12.9041 15.9253 12.4135 15.712 11.9975C15.5093 11.5709 15.0827 11.315 14.6135 11.315H14.6241C16.2026 4.92658 22.8362 3.65744 26.7716 3.47613C27.1343 3.46547 27.4329 3.19884 27.5075 2.83623C27.5822 2.47361 27.3902 2.12166 27.0596 1.98302C23.2735 0.265938 18.7515 0.511235 14.9761 2.64425C11.5526 4.57464 9.24892 7.71017 8.59835 11.3256H8.20374C7.73448 11.3256 7.31854 11.5923 7.10524 12.0082C6.9026 12.4241 6.94526 12.9147 7.23322 13.288L10.4541 17.4367ZM9.27025 12.8934C9.66486 12.8934 10.0061 12.5948 10.0488 12.2002C10.4541 8.79801 12.5338 5.81179 15.7333 4.00939C17.8663 2.80423 20.2659 2.28164 22.5909 2.45228C21.1618 2.7829 19.6794 3.29482 18.3036 4.06271C15.2747 5.79046 13.4403 8.45673 12.875 11.9762C12.8324 12.2002 12.8964 12.4348 13.0564 12.6055C13.2057 12.7868 13.4296 12.8827 13.6536 12.8827H13.8989L11.4246 16.1143L8.92896 12.8934H9.27025ZM37.8313 26.5554C37.5967 26.2568 37.2554 26.0755 36.8715 26.0755C36.4875 26.0755 36.1356 26.2461 35.9116 26.5554L32.7014 30.7148C32.4135 31.0881 32.3602 31.5787 32.5735 31.9946C32.7761 32.4212 33.2027 32.6772 33.672 32.6772H33.6826C32.0935 39.0762 25.4598 40.3454 21.5351 40.516C21.1725 40.5267 20.8739 40.7933 20.7992 41.1559C20.7352 41.5079 20.9165 41.8705 21.2471 42.0198C22.9109 42.777 24.724 43.1503 26.5583 43.1503C28.8833 43.1503 31.219 42.553 33.3307 41.3585C36.7542 39.4282 39.0578 36.2926 39.7084 32.6772H40.0923C40.5616 32.6772 40.9775 32.4105 41.1908 31.9946C41.3935 31.5787 41.3508 31.0881 41.0629 30.7148L37.8313 26.5554ZM39.0152 31.0987C38.6206 31.0987 38.2793 31.3973 38.2366 31.792C37.8313 35.1941 35.7517 38.1803 32.5521 39.9827C30.4191 41.1879 28.0088 41.7105 25.6945 41.5399C27.1236 41.2092 28.606 40.6973 29.9818 39.9294C33.0214 38.2017 34.8451 35.5354 35.4104 32.0159C35.453 31.792 35.389 31.5573 35.2291 31.3867C35.0798 31.2054 34.8558 31.1094 34.6318 31.1094H34.3865L36.8821 27.8885L39.3778 31.1094L39.0152 31.0987Z" fill="white"/>
<path d="M44.401 8.71245L39.687 4.00914C39.5697 3.89183 39.4204 3.8385 39.2711 3.8385H31.027C30.0565 3.8385 29.2566 4.62772 29.2566 5.60891V22.1718C29.2566 23.1423 30.0458 23.9422 31.027 23.9422H42.8012C43.7718 23.9422 44.5716 23.153 44.5716 22.1718V9.12839C44.5716 8.95775 44.5077 8.8191 44.401 8.71245ZM39.8577 5.83287L42.5666 8.54181H40.4549C40.135 8.54181 39.8683 8.27518 39.8683 7.95523L39.8577 5.83287ZM42.8119 22.7477H31.027C30.707 22.7477 30.4404 22.4811 30.4404 22.1611V5.59824C30.4404 5.27829 30.707 5.01166 31.027 5.01166H38.6845V7.95523C38.6845 8.92575 39.4737 9.72563 40.4549 9.72563H43.3985V22.1611C43.3985 22.4811 43.1319 22.7477 42.8119 22.7477Z" fill="white"/>
<path d="M40.4444 13.3307H34.5573C34.2373 13.3307 33.9707 13.5973 33.9707 13.9173C33.9707 14.2372 34.2373 14.5038 34.5573 14.5038H40.4444C40.7644 14.5038 41.031 14.2372 41.031 13.9173C41.031 13.5867 40.775 13.3307 40.4444 13.3307Z" fill="white"/>
<path d="M40.4444 15.677H34.5573C34.2373 15.677 33.9707 15.9436 33.9707 16.2636C33.9707 16.5835 34.2373 16.8502 34.5573 16.8502H40.4444C40.7644 16.8502 41.031 16.5835 41.031 16.2636C41.0417 15.9436 40.775 15.677 40.4444 15.677Z" fill="white"/>
<path d="M40.4444 18.0446H34.5573C34.2373 18.0446 33.9707 18.3112 33.9707 18.6311C33.9707 18.9511 34.2373 19.2177 34.5573 19.2177H40.4444C40.7644 19.2177 41.031 18.9511 41.031 18.6311C41.031 18.3112 40.775 18.0446 40.4444 18.0446Z" fill="white"/>
<path d="M32.2108 14.5038C32.5348 14.5038 32.7974 14.2412 32.7974 13.9173C32.7974 13.5933 32.5348 13.3307 32.2108 13.3307C31.8869 13.3307 31.6243 13.5933 31.6243 13.9173C31.6243 14.2412 31.8869 14.5038 32.2108 14.5038Z" fill="white"/>
<path d="M32.2108 16.8607C32.5348 16.8607 32.7974 16.598 32.7974 16.2741C32.7974 15.9501 32.5348 15.6875 32.2108 15.6875C31.8869 15.6875 31.6243 15.9501 31.6243 16.2741C31.6243 16.598 31.8869 16.8607 32.2108 16.8607Z" fill="white"/>
<path d="M32.2108 19.2177C32.5348 19.2177 32.7974 18.9551 32.7974 18.6311C32.7974 18.3072 32.5348 18.0446 32.2108 18.0446C31.8869 18.0446 31.6243 18.3072 31.6243 18.6311C31.6243 18.9551 31.8869 19.2177 32.2108 19.2177Z" fill="white"/>
</svg>
