<svg width="23" height="23" viewBox="0 0 23 23" fill="none" xmlns="http://www.w3.org/2000/svg">
<path d="M12.1613 1.5792L1.904 0.0205352C1.428 -0.0541316 0.942667 0.0765352 0.578667 0.384535C0.214667 0.701869 0 1.1592 0 1.6352V21.3006C0 21.8139 0.42 22.2339 0.933334 22.2339H3.96667V17.3339C3.96667 16.4286 4.69467 15.7006 5.60001 15.7006H7.93334C8.83867 15.7006 9.56668 16.4286 9.56668 17.3339V22.2339H13.5333V3.19387C13.5333 2.3912 12.9547 1.70987 12.1613 1.5792ZM5.13334 13.6005H3.73334C3.34694 13.6005 3.03334 13.2869 3.03334 12.9005C3.03334 12.5141 3.34694 12.2005 3.73334 12.2005H5.13334C5.51974 12.2005 5.83334 12.5141 5.83334 12.9005C5.83334 13.2869 5.51974 13.6005 5.13334 13.6005ZM5.13334 10.8005H3.73334C3.34694 10.8005 3.03334 10.4869 3.03334 10.1005C3.03334 9.71414 3.34694 9.40054 3.73334 9.40054H5.13334C5.51974 9.40054 5.83334 9.71414 5.83334 10.1005C5.83334 10.4869 5.51974 10.8005 5.13334 10.8005ZM5.13334 8.00054H3.73334C3.34694 8.00054 3.03334 7.68694 3.03334 7.30054C3.03334 6.91414 3.34694 6.60054 3.73334 6.60054H5.13334C5.51974 6.60054 5.83334 6.91414 5.83334 7.30054C5.83334 7.68694 5.51974 8.00054 5.13334 8.00054ZM5.13334 5.20054H3.73334C3.34694 5.20054 3.03334 4.88694 3.03334 4.50054C3.03334 4.11414 3.34694 3.80054 3.73334 3.80054H5.13334C5.51974 3.80054 5.83334 4.11414 5.83334 4.50054C5.83334 4.88694 5.51974 5.20054 5.13334 5.20054ZM9.80001 13.6005H8.40001C8.01361 13.6005 7.70001 13.2869 7.70001 12.9005C7.70001 12.5141 8.01361 12.2005 8.40001 12.2005H9.80001C10.1864 12.2005 10.5 12.5141 10.5 12.9005C10.5 13.2869 10.1864 13.6005 9.80001 13.6005ZM9.80001 10.8005H8.40001C8.01361 10.8005 7.70001 10.4869 7.70001 10.1005C7.70001 9.71414 8.01361 9.40054 8.40001 9.40054H9.80001C10.1864 9.40054 10.5 9.71414 10.5 10.1005C10.5 10.4869 10.1864 10.8005 9.80001 10.8005ZM9.80001 8.00054H8.40001C8.01361 8.00054 7.70001 7.68694 7.70001 7.30054C7.70001 6.91414 8.01361 6.60054 8.40001 6.60054H9.80001C10.1864 6.60054 10.5 6.91414 10.5 7.30054C10.5 7.68694 10.1864 8.00054 9.80001 8.00054ZM9.80001 5.20054H8.40001C8.01361 5.20054 7.70001 4.88694 7.70001 4.50054C7.70001 4.11414 8.01361 3.80054 8.40001 3.80054H9.80001C10.1864 3.80054 10.5 4.11414 10.5 4.50054C10.5 4.88694 10.1864 5.20054 9.80001 5.20054Z" fill="#116AEF"/>
<path d="M21.1119 9.95306L14.4666 8.56146V22.2339H20.7666C21.6672 22.2339 22.3999 21.5012 22.3999 20.6005V11.5491C22.3999 10.7781 21.8744 10.122 21.1119 9.95306ZM18.8999 19.4339H17.4999C17.1135 19.4339 16.7999 19.1203 16.7999 18.7339C16.7999 18.3475 17.1135 18.0339 17.4999 18.0339H18.8999C19.2863 18.0339 19.5999 18.3475 19.5999 18.7339C19.5999 19.1203 19.2863 19.4339 18.8999 19.4339ZM18.8999 16.6339H17.4999C17.1135 16.6339 16.7999 16.3203 16.7999 15.9339C16.7999 15.5475 17.1135 15.2339 17.4999 15.2339H18.8999C19.2863 15.2339 19.5999 15.5475 19.5999 15.9339C19.5999 16.3203 19.2863 16.6339 18.8999 16.6339ZM18.8999 13.8339H17.4999C17.1135 13.8339 16.7999 13.5203 16.7999 13.1339C16.7999 12.7475 17.1135 12.4339 17.4999 12.4339H18.8999C19.2863 12.4339 19.5999 12.7475 19.5999 13.1339C19.5999 13.5203 19.2863 13.8339 18.8999 13.8339Z" fill="#116AEF"/>
</svg>
