<svg width="23" height="21" viewBox="0 0 23 21" fill="none" xmlns="http://www.w3.org/2000/svg">
<path d="M0 20.3437V21H6.5625V20.3437C6.5625 18.5346 5.09044 17.0625 3.28125 17.0625C1.47206 17.0625 0 18.5346 0 20.3437Z" fill="#116AEF"/>
<path d="M7.9187 20.3437V21H14.4812V20.3437C14.4812 18.5346 13.0091 17.0625 11.1999 17.0625C9.39076 17.0625 7.9187 18.5346 7.9187 20.3437Z" fill="#116AEF"/>
<path d="M21.0874 15.0937C21.0874 14.2393 20.5372 13.5177 19.7749 13.2459V7.875H17.1062V3.9375H15.7937V11.8125H17.1062V9.1875H18.4624V13.2459C17.7002 13.5177 17.15 14.2393 17.15 15.0937C17.15 16.1794 18.0331 17.0625 19.1187 17.0625C20.2043 17.0625 21.0874 16.1794 21.0874 15.0937Z" fill="#116AEF"/>
<path d="M19.1187 17.0625C17.3095 17.0625 15.8374 18.5346 15.8374 20.3437V21H22.3999V20.3437C22.3999 18.5346 20.9278 17.0625 19.1187 17.0625Z" fill="#116AEF"/>
<path d="M7.9187 11.8125H10.5437V13.2459C9.78149 13.5177 9.2312 14.2393 9.2312 15.0937C9.2312 16.1794 10.1143 17.0625 11.1999 17.0625C12.2856 17.0625 13.1687 16.1794 13.1687 15.0937C13.1687 14.2393 12.6184 13.5177 11.8562 13.2459V11.8125H14.4812V0H7.9187V11.8125ZM10.5437 2.625H11.8562V3.9375H10.5437V2.625ZM10.5437 5.25H11.8562V6.5625H10.5437V5.25ZM10.5437 7.875H11.8562V9.1875H10.5437V7.875Z" fill="#116AEF"/>
<path d="M5.29375 7.875H2.625V13.2459C1.86279 13.5177 1.3125 14.2393 1.3125 15.0937C1.3125 16.1794 2.19564 17.0625 3.28125 17.0625C4.36686 17.0625 5.25 16.1794 5.25 15.0937C5.25 14.2393 4.69971 13.5177 3.9375 13.2459V9.1875H5.29375V11.8125H6.60625V3.9375H5.29375V7.875Z" fill="#116AEF"/>
</svg>
