<svg width="23" height="28" viewBox="0 0 23 28" fill="none" xmlns="http://www.w3.org/2000/svg">
<path fill-rule="evenodd" clip-rule="evenodd" d="M22.7906 2.27906V27.0231C22.7906 27.3851 22.59 27.7172 22.2696 27.8865C21.9493 28.0558 21.5625 28.0337 21.2629 27.8292L18.0137 25.6114L14.9415 27.8162C14.5729 28.0819 14.0702 28.0571 13.729 27.7576L11.3953 25.7169L9.06153 27.7576C8.72032 28.0571 8.21762 28.0819 7.84907 27.8162L4.7769 25.6114L1.52762 27.8292C1.22809 28.0337 0.841297 28.0558 0.520927 27.8865C0.200557 27.7172 0 27.3851 0 27.0231V2.27906C0 1.02102 1.01971 0 2.27906 0H20.5115C21.7708 0 22.7906 1.02102 22.7906 2.27906ZM6.18601 12.372H16.6045C17.1437 12.372 17.5813 11.9344 17.5813 11.3953C17.5813 10.8561 17.1437 10.4185 16.6045 10.4185H6.18601C5.64685 10.4185 5.20927 10.8561 5.20927 11.3953C5.20927 11.9344 5.64685 12.372 6.18601 12.372ZM6.18601 7.16275H16.6045C17.1437 7.16275 17.5813 6.72517 17.5813 6.18601C17.5813 5.64685 17.1437 5.20927 16.6045 5.20927H6.18601C5.64685 5.20927 5.20927 5.64685 5.20927 6.18601C5.20927 6.72517 5.64685 7.16275 6.18601 7.16275ZM6.18601 17.5813H11.3953C11.9344 17.5813 12.372 17.1437 12.372 16.6045C12.372 16.0654 11.9344 15.6278 11.3953 15.6278H6.18601C5.64685 15.6278 5.20927 16.0654 5.20927 16.6045C5.20927 17.1437 5.64685 17.5813 6.18601 17.5813Z" fill="#116AEF"/>
</svg>
