<svg width="28" height="25" viewBox="0 0 28 25" fill="none" xmlns="http://www.w3.org/2000/svg">
<path d="M19.25 12.7313C18.9875 11.4188 17.4125 10.8938 16.4063 11.7251C15.925 10.8938 14.875 10.5876 14 11.0688V8.09381C14 7.13131 13.2125 6.34381 12.25 6.34381C11.2875 6.34381 10.5 7.13131 10.5 8.09381V16.0563C10.4563 16.0126 8.83754 13.5188 6.56254 15.2688C5.90629 15.7501 5.81879 16.6688 6.30004 17.2813L10.8063 23.1001C11.375 23.8438 12.25 24.2376 13.1688 24.2376H18.9C20.5188 24.2376 21.875 22.9251 21.875 21.2626V14.2188C21.9188 12.8626 20.3875 12.0313 19.25 12.7313ZM16.7563 21.6126C16.5375 21.6126 16.3188 21.3938 16.3188 21.1751C16.3188 20.9563 16.5375 20.7376 16.7563 20.7376C17.8938 20.7376 18.8563 19.8188 18.8563 18.6376C18.8563 18.3751 19.075 18.2001 19.2938 18.2001C19.5125 18.2001 19.7313 18.3751 19.7313 18.6376C19.7313 20.3001 18.4188 21.6126 16.7563 21.6126Z" fill="#116AEF"/>
<path d="M27.5625 17.5875H26.2063V0.437501C26.2063 0.21875 25.9875 0 25.7688 0H2.23125C2.0125 0 1.79375 0.21875 1.79375 0.437501V17.5875H0.4375C0.21875 17.5875 0 17.8063 0 18.025C0 20.0375 1.61875 21.6125 3.5875 21.6125H8.61875C5.46875 17.5438 5.64375 17.7625 5.5125 17.5875H2.66875V0.875002H25.3313V17.5875H22.7937V21.6125H24.4125C26.3813 21.6125 28 19.9938 28 18.025C28 17.7625 27.825 17.5875 27.5625 17.5875Z" fill="#116AEF"/>
<path d="M12.1624 4.76872C11.8999 4.76872 11.7249 4.59372 11.7249 4.33122V2.93121C11.7249 2.66871 11.8999 2.49371 12.1624 2.49371C12.4249 2.49371 12.5999 2.66871 12.5999 2.93121V4.33122C12.5999 4.59372 12.3811 4.76872 12.1624 4.76872Z" fill="#116AEF"/>
<path d="M10.0187 4.81249L9.31875 3.54374C9.1875 3.32499 9.275 3.06249 9.49375 2.93124C9.7125 2.79999 9.975 2.88749 10.1062 3.10624L10.8062 4.37499C10.9375 4.59374 10.85 4.85624 10.6312 4.98749C10.4125 5.07499 10.1062 5.03124 10.0187 4.81249Z" fill="#116AEF"/>
<path d="M13.6937 4.98749C13.4749 4.85624 13.3874 4.59374 13.5187 4.37499L14.2187 3.10624C14.3499 2.88749 14.6124 2.79999 14.8312 2.93124C15.0499 3.06249 15.1374 3.32499 15.0062 3.54374L14.3062 4.81249C14.1749 5.03124 13.8687 5.07499 13.6937 4.98749Z" fill="#116AEF"/>
<path d="M23.6249 7.56873H18.2437C17.9812 7.56873 17.8062 7.39373 17.8062 7.13123C17.8062 6.86873 17.9812 6.69373 18.2437 6.69373H23.6249C23.8874 6.69373 24.0624 6.86873 24.0624 7.13123C24.0624 7.39373 23.8874 7.56873 23.6249 7.56873Z" fill="#116AEF"/>
<path d="M23.6251 4.50629H17.3689C17.1064 4.50629 16.9314 4.33129 16.9314 4.06879C16.9314 3.80629 17.1064 3.63129 17.3689 3.63129H23.6251C23.8876 3.63129 24.0626 3.80629 24.0626 4.06879C24.0626 4.33129 23.8876 4.50629 23.6251 4.50629Z" fill="#116AEF"/>
<path d="M23.6251 10.6313H19.9939C19.7314 10.6313 19.5564 10.4563 19.5564 10.1938C19.5564 9.93129 19.7314 9.75629 19.9939 9.75629H23.6251C23.8876 9.75629 24.0626 9.93129 24.0626 10.1938C24.0626 10.4563 23.8876 10.6313 23.6251 10.6313Z" fill="#116AEF"/>
<path d="M8.13745 7.56873H5.07495C4.81245 7.56873 4.63745 7.39373 4.63745 7.13123C4.63745 6.86873 4.81245 6.69373 5.07495 6.69373H8.13745C8.39995 6.69373 8.57495 6.86873 8.57495 7.13123C8.57495 7.39373 8.39995 7.56873 8.13745 7.56873Z" fill="#116AEF"/>
<path d="M8.13745 10.6313H5.07495C4.81245 10.6313 4.63745 10.4563 4.63745 10.1938C4.63745 9.93129 4.81245 9.75629 5.07495 9.75629H8.13745C8.39995 9.75629 8.57495 9.93129 8.57495 10.1938C8.57495 10.4563 8.39995 10.6313 8.13745 10.6313Z" fill="#116AEF"/>
</svg>
