<svg width="28" height="28" viewBox="0 0 28 28" fill="none" xmlns="http://www.w3.org/2000/svg">
<path d="M24.2664 11.4146V2.58532C24.2664 1.15733 23.1091 0 21.6811 0H6.31848C4.89048 0 3.73315 1.15733 3.73315 2.58532V11.424C3.73315 12.8519 4.89048 14.0093 6.31848 14.0093H9.74379L11.7878 17.4253C12.2544 18.1999 13.1038 18.6759 13.9998 18.6759C14.8958 18.6759 15.7544 18.1999 16.2118 17.4253L18.2558 14.0093H21.6811C23.1091 14.0093 24.2664 12.8519 24.2664 11.424V11.4146ZM8.3998 4.19998H9.33313C9.84646 4.19998 10.2665 4.61998 10.2665 5.13331C10.2665 5.64664 9.84646 6.06664 9.33313 6.06664H8.3998C7.88647 6.06664 7.46647 5.64664 7.46647 5.13331C7.46647 4.61998 7.88647 4.19998 8.3998 4.19998ZM15.8664 9.79996H8.3998C7.88647 9.79996 7.46647 9.37996 7.46647 8.86663C7.46647 8.3533 7.88647 7.9333 8.3998 7.9333H15.8664C16.3798 7.9333 16.7998 8.3533 16.7998 8.86663C16.7998 9.37996 16.3798 9.79996 15.8664 9.79996ZM19.5997 9.79996H18.6664C18.1531 9.79996 17.7331 9.37996 17.7331 8.86663C17.7331 8.3533 18.1531 7.9333 18.6664 7.9333H19.5997C20.1131 7.9333 20.5331 8.3533 20.5331 8.86663C20.5331 9.37996 20.1131 9.79996 19.5997 9.79996ZM19.5997 6.06664H12.1331C11.6198 6.06664 11.1998 5.64664 11.1998 5.13331C11.1998 4.61998 11.6198 4.19998 12.1331 4.19998H19.5997C20.1131 4.19998 20.5331 4.61998 20.5331 5.13331C20.5331 5.64664 20.1131 6.06664 19.5997 6.06664Z" fill="#116AEF"/>
<path d="M23.3337 21.4668C24.8801 21.4668 26.1337 20.2132 26.1337 18.6668C26.1337 17.1204 24.8801 15.8668 23.3337 15.8668C21.7873 15.8668 20.5337 17.1204 20.5337 18.6668C20.5337 20.2132 21.7873 21.4668 23.3337 21.4668Z" fill="#116AEF"/>
<path d="M26.656 21.9333C25.8067 22.792 24.6307 23.3333 23.3334 23.3333C22.0361 23.3333 20.8601 22.792 20.0107 21.9333C19.1801 22.7733 18.6667 23.9307 18.6667 25.2V25.6667C18.6667 26.9547 19.7121 28 21.0001 28H25.6667C26.9547 28 28 26.9547 28 25.6667V25.2C28 23.9307 27.4867 22.7733 26.656 21.9333Z" fill="#116AEF"/>
<path d="M4.66693 21.4668C6.21332 21.4668 7.46692 20.2132 7.46692 18.6668C7.46692 17.1204 6.21332 15.8668 4.66693 15.8668C3.12054 15.8668 1.86694 17.1204 1.86694 18.6668C1.86694 20.2132 3.12054 21.4668 4.66693 21.4668Z" fill="#116AEF"/>
<path d="M4.66664 23.3333C3.36932 23.3333 2.19332 22.792 1.34399 21.9333C0.513331 22.7733 0 23.9307 0 25.2V25.6667C0 26.9547 1.04533 28 2.33332 28H6.99997C8.28796 28 9.33329 26.9547 9.33329 25.6667V25.2C9.33329 23.9307 8.81996 22.7733 7.9893 21.9333C7.13997 22.792 5.96397 23.3333 4.66664 23.3333Z" fill="#116AEF"/>
</svg>
